<svg width="56" height="56" viewBox="0 0 56 56" fill="none" xmlns="http://www.w3.org/2000/svg">
<rect width="56" height="56" transform="matrix(-1 0 0 1 56 0)" fill="#20367C"/>
<path d="M16.2672 17.34C15.2167 16.2051 16.0216 14.3633 17.568 14.3633V14.3633C18.0619 14.3633 18.5334 14.5693 18.8688 14.9317L40.2443 38.0233C41.2948 39.1581 40.4899 41 38.9434 41V41C38.4496 41 37.9781 40.794 37.6426 40.4316L16.2672 17.34Z" fill="url(#paint0_linear_3737_31818)"/>
<path d="M40.2445 17.34C41.295 16.2051 40.4901 14.3633 38.9437 14.3633V14.3633C38.4498 14.3633 37.9784 14.5693 37.6429 14.9317L16.2675 38.0233C15.2169 39.1581 16.0218 41 17.5683 41V41C18.0621 41 18.5336 40.794 18.8691 40.4316L40.2445 17.34Z" fill="white"/>
<defs>
<linearGradient id="paint0_linear_3737_31818" x1="15.1398" y1="14.3633" x2="34.7915" y2="43.647" gradientUnits="userSpaceOnUse">
<stop stop-color="white"/>
<stop offset="0.424604" stop-color="#20367C"/>
<stop offset="0.621848" stop-color="#20367C"/>
<stop offset="1" stop-color="white" stop-opacity="0.95935"/>
</linearGradient>
</defs>
</svg>
