<svg width="275" height="48" viewBox="0 0 275 48" fill="none" xmlns="http://www.w3.org/2000/svg">
<path d="M80.3689 11.7229H89.1649C89.1649 15.0978 88.4746 17.5003 86.4284 19.3931C84.6395 21.0558 82.5932 21.5408 80.4208 21.5408C77.3527 21.5408 75.257 20.415 73.8764 19.0096C72.5972 17.7304 71.4219 15.6594 71.4219 12.8487C71.4219 10.0379 72.4957 7.91496 73.9778 6.45761C75.3832 5.05223 77.5828 3.95117 80.599 3.95117C82.185 3.95117 83.8972 4.30994 85.2011 5.10171C86.5298 5.92069 87.6309 7.27412 88.2445 8.60528L84.0258 10.3447C83.719 9.55293 83.2341 8.9888 82.7986 8.6325C82.0563 8.01888 81.2645 7.78877 80.4208 7.78877C79.3717 7.78877 78.2979 8.17229 77.5061 8.96405C76.509 9.96119 76.024 11.5472 76.024 12.8759C76.024 14.4347 76.5857 15.7139 77.3799 16.5576C78.1989 17.4261 79.1961 17.8616 80.5 17.8616C81.267 17.8616 82.1627 17.7329 82.9545 17.0698C83.3627 16.7382 83.8502 16.1246 84.0036 15.177H80.3738V11.7253L80.3689 11.7229Z" fill="#1B499B"/>
<path d="M107.342 19.2397C105.602 20.9024 103.148 21.7709 100.617 21.7709C98.0855 21.7709 95.631 20.9024 93.8916 19.2397C92.0755 17.5003 91.207 15.1225 91.207 12.8734C91.207 10.6243 92.0755 8.19455 93.8916 6.48235C95.631 4.81964 98.0855 3.95117 100.617 3.95117C103.148 3.95117 105.602 4.81964 107.342 6.48235C109.158 8.19455 110.026 10.5995 110.026 12.8734C110.026 15.1473 109.158 17.5003 107.342 19.2397ZM97.1651 9.60242C96.2447 10.4981 95.8092 11.7501 95.8092 12.9526C95.8092 14.4619 96.5243 15.5085 97.1651 16.1221C97.9841 16.9139 99.1346 17.478 100.617 17.478C102.099 17.478 103.249 16.9411 104.044 16.1494C104.835 15.3576 105.424 14.1798 105.424 12.8759C105.424 11.5719 104.835 10.3694 104.044 9.60242C103.098 8.70673 101.794 8.24651 100.617 8.24651C99.4389 8.24651 98.0855 8.68199 97.1651 9.60242Z" fill="#1B499B"/>
<path d="M115.239 4.33398L119.328 14.7136L123.47 4.33398H128.278L121.016 21.3867H117.564L110.406 4.33398H115.239Z" fill="#1B499B"/>
<path d="M139.756 8.09241H134.488V10.9304H139.474V14.6888H134.488V17.6283H139.756V21.3867H130.066V4.33398H139.756V8.09241Z" fill="#1B499B"/>
<path d="M149.472 4.33398C150.751 4.33398 152.387 4.53935 153.639 5.84329C154.611 6.84042 155.096 8.32251 155.096 9.67842C155.096 11.1358 154.584 12.415 153.74 13.2315C153.075 13.8698 152.181 14.2534 151.387 14.4068L156.732 21.3867H151.234L146.99 14.8422V21.3867H142.566V4.33398H149.47H149.472ZM146.99 11.9795H147.834C148.5 11.9795 149.445 11.8013 149.982 11.2892C150.313 10.9576 150.543 10.3935 150.543 9.85656C150.543 9.31965 150.338 8.78273 149.955 8.42396C149.546 8.01571 148.804 7.75838 147.832 7.75838H146.988V11.977L146.99 11.9795Z" fill="#1B499B"/>
<path d="M158.598 21.3867V4.33398H163.022L171.177 14.7655V4.33398H175.601V21.3867H171.177L163.022 10.9551V21.3867H158.598Z" fill="#1B499B"/>
<path d="M194.545 19.2397C192.805 20.9024 190.351 21.7709 187.82 21.7709C185.289 21.7709 182.834 20.9024 181.095 19.2397C179.279 17.5003 178.41 15.1225 178.41 12.8734C178.41 10.6243 179.279 8.19455 181.095 6.48235C182.834 4.81964 185.289 3.95117 187.82 3.95117C190.351 3.95117 192.805 4.81964 194.545 6.48235C196.361 8.19455 197.229 10.5995 197.229 12.8734C197.229 15.1473 196.361 17.5003 194.545 19.2397ZM184.368 9.60242C183.448 10.4981 183.012 11.7501 183.012 12.9526C183.012 14.4619 183.727 15.5085 184.368 16.1221C185.187 16.9139 186.338 17.478 187.82 17.478C189.302 17.478 190.452 16.9411 191.247 16.1494C192.038 15.3576 192.627 14.1798 192.627 12.8759C192.627 11.5719 192.038 10.3694 191.247 9.60242C190.302 8.70673 188.998 8.24651 187.82 8.24651C186.642 8.24651 185.289 8.68199 184.368 9.60242Z" fill="#1B499B"/>
<path d="M206.943 4.33398C208.222 4.33398 209.858 4.53935 211.109 5.84329C212.082 6.84042 212.567 8.32251 212.567 9.67842C212.567 11.1358 212.055 12.415 211.211 13.2315C210.545 13.8698 209.652 14.2534 208.858 14.4068L214.202 21.3867H208.705L204.461 14.8422V21.3867H200.037V4.33398H206.94H206.943ZM204.464 11.9795H205.307C205.973 11.9795 206.918 11.8013 207.455 11.2892C207.787 10.9576 208.017 10.3935 208.017 9.85656C208.017 9.31965 207.811 8.78273 207.428 8.42396C207.02 8.01571 206.277 7.75838 205.305 7.75838H204.461V11.977L204.464 11.9795Z" fill="#1B499B"/>
<path d="M80.3689 37.9177H89.1649C89.1649 41.2926 88.4746 43.6951 86.4284 45.588C84.6395 47.2507 82.5932 47.7356 80.4208 47.7356C77.3527 47.7356 75.257 46.6098 73.8764 45.2044C72.5972 43.9252 71.4219 41.8543 71.4219 39.0435C71.4219 36.2327 72.4957 34.1098 73.9778 32.6524C75.3832 31.2471 77.5828 30.146 80.599 30.146C82.185 30.146 83.8972 30.5048 85.2011 31.2965C86.5298 32.1155 87.6309 33.4689 88.2445 34.8001L84.0258 36.5395C83.719 35.7478 83.2341 35.1836 82.7986 34.8273C82.0563 34.2137 81.2645 33.9836 80.4208 33.9836C79.3717 33.9836 78.2979 34.3671 77.5061 35.1589C76.509 36.156 76.024 37.742 76.024 39.0707C76.024 40.6295 76.5857 41.9087 77.3799 42.7524C78.1989 43.6209 79.1961 44.0564 80.5 44.0564C81.267 44.0564 82.1627 43.9277 82.9545 43.2646C83.3627 42.9331 83.8502 42.3194 84.0036 41.3718H80.3738V37.9202L80.3689 37.9177Z" fill="#1B499B"/>
<path d="M101.41 44.7198H95.222L94.0714 47.5825H89.3926L95.937 30.5298H100.769L107.188 47.5825H102.457L101.408 44.7198H101.41ZM100.232 41.3448L98.3148 35.8223L96.4492 41.3448H100.232Z" fill="#1B499B"/>
<path d="M110.918 30.5298L115.008 40.9094L119.15 30.5298H123.958L116.696 47.5825H113.244L106.086 30.5298H110.918Z" fill="#1B499B"/>
<path d="M130.17 30.5298V47.5825H125.746V30.5298H130.17Z" fill="#1B499B"/>
<path d="M133.75 47.5825V30.5298H138.174L146.329 40.9613V30.5298H150.753V47.5825H146.329L138.174 37.1509V47.5825H133.75Z" fill="#1B499B"/>
<path d="M160.285 47.5825V30.5298H164.709L172.864 40.9613V30.5298H177.288V47.5825H172.864L164.709 37.1509V47.5825H160.285Z" fill="#1B499B"/>
<path d="M190.556 34.2882H185.289V37.1262H190.274V40.8846H185.289V43.8241H190.556V47.5825H180.867V30.5298H190.556V34.2882Z" fill="#1B499B"/>
<path d="M196.205 30.5298L199.172 41.5502L202.777 30.5298H206.305L209.655 41.5502L212.877 30.5298H217.504L212.058 47.5825H207.532L204.439 37.7126L201.166 47.5825H196.665L191.578 30.5298H196.205Z" fill="#1B499B"/>
<path d="M220.415 42.4704C221.361 43.366 222.793 44.2098 224.327 44.2098C225.223 44.2098 225.76 43.9277 226.039 43.6209C226.294 43.366 226.475 42.9825 226.475 42.5471C226.475 42.2155 226.346 41.832 225.99 41.5252C225.554 41.1417 224.891 40.9635 223.79 40.6295L222.64 40.2707C221.925 40.0406 220.876 39.6571 220.185 38.8901C219.317 37.9449 219.213 36.7424 219.213 35.8739C219.213 33.7782 220.032 32.499 220.772 31.7568C221.64 30.8883 223.073 30.146 225.144 30.146C226.831 30.146 228.801 30.6829 230.411 31.5266L228.647 34.9783C227.319 33.9292 226.321 33.8277 225.733 33.8277C225.297 33.8277 224.711 33.9292 224.275 34.3399C224.02 34.5947 223.84 34.8768 223.84 35.2603C223.84 35.5671 223.892 35.7972 224.07 36.0273C224.199 36.1808 224.505 36.4876 225.552 36.7944L226.908 37.2026C227.982 37.5342 229.107 37.9177 230.001 38.8901C230.869 39.8105 231.099 40.7557 231.099 41.9334C231.099 43.4922 230.716 45.0015 229.489 46.2288C228.031 47.6861 226.267 47.9682 224.451 47.9682C223.377 47.9682 222.355 47.8668 221.101 47.4065C220.819 47.3051 219.745 46.8944 218.518 46.0506L220.41 42.4704H220.415Z" fill="#1B499B"/>
<path d="M249.254 45.4345C247.514 47.0973 245.06 47.9657 242.529 47.9657C239.998 47.9657 237.543 47.0973 235.804 45.4345C233.988 43.6951 233.119 41.3174 233.119 39.0682C233.119 36.8191 233.988 34.3894 235.804 32.6772C237.543 31.0145 239.998 30.146 242.529 30.146C245.06 30.146 247.514 31.0145 249.254 32.6772C251.07 34.3894 251.938 36.7944 251.938 39.0682C251.938 41.3421 251.07 43.6951 249.254 45.4345ZM239.08 35.7972C238.159 36.6929 237.724 37.9449 237.724 39.1474C237.724 40.6567 238.439 41.7033 239.08 42.317C239.899 43.1087 241.049 43.6729 242.531 43.6729C244.013 43.6729 245.164 43.1359 245.958 42.3442C246.75 41.5524 247.339 40.3747 247.339 39.0707C247.339 37.7668 246.75 36.5643 245.958 35.7972C245.013 34.9016 243.709 34.4413 242.531 34.4413C241.354 34.4413 240 34.8768 239.08 35.7972Z" fill="#1B499B"/>
<path d="M253.65 47.5825L256.54 30.5298H260.912L264.364 39.6326L268.021 30.5298H272.445L275.001 47.5825H270.577L269.325 37.7646L265.208 47.5825H263.444L259.507 37.7646L258.05 47.5825H253.653H253.65Z" fill="#1B499B"/>
<g clip-path="url(#clip0_1090_13998)">
<path d="M61.0896 37.7518C60.6575 37.7598 56.3343 37.7417 55.3563 37.7518C54.6314 37.5855 55.6269 36.1276 56.5968 35.7534C57.595 35.3677 58.9849 36.2091 59.0731 35.5952C58.9465 34.5257 54.6476 34.2329 53.2227 33.4346C52.5301 32.7979 51.8233 30.3277 51.4908 30.3311C51.1556 30.3533 47.6132 35.2755 47.0324 35.5932C46.3182 35.9089 45.8928 36.0529 45.668 36.3518C45.4695 36.7913 45.8201 38.2263 45.3685 38.272C43.0262 38.2909 37.9781 38.2747 37.6988 38.272C37.0243 37.9281 37.7304 36.8088 38.6 36.5079C40.1104 35.9863 41.083 36.7468 41.219 36.6015C41.6484 36.3343 39.7692 31.1637 41.4747 28.5312C41.4195 28.3246 41.013 28.0534 40.8064 27.9961C40.0646 29.0717 36.8588 29.2467 34.5313 28.7978C34.684 29.866 36.3627 32.3658 36.1487 33.6345C35.7717 34.8367 33.6347 37.7396 33.3547 37.7396C33.3547 37.7396 28.6808 37.7383 28.2831 37.7383C28.0327 37.5364 28.6445 36.586 28.946 36.3221C29.9328 35.4283 31.3738 36.802 31.7736 35.2668C31.9251 34.7242 31.256 33.9913 29.6205 32.7918C28.4641 31.9438 27.1698 30.4724 26.8958 30.5545C24.6175 33.2415 22.1486 34.8306 20.3697 35.5461C18.7906 36.3693 17.3018 38.301 17.1752 38.272C17.1752 38.272 10.1463 38.2996 9.78482 38.272C9.23491 37.9342 10.7399 36.5173 11.3827 36.273C12.0598 36.0152 13.5244 36.7832 14.1349 36.3639C14.7744 35.9156 14.8343 33.6103 16.9491 31.4989C17.3657 31.0789 17.1046 28.1092 18.3141 25.8982C17.5905 25.5522 16.3675 25.8012 15.4993 26.2044C14.3066 26.7577 14.0394 28.6181 12.0787 29.0239C10.5925 29.1774 9.48597 28.5548 9.05251 28.5649C8.35048 28.6437 5.14191 29.2804 3.64162 29.2804C2.55123 28.9889 -0.0286808 26.831 0.119397 26.4386C0.352282 25.9857 2.7996 23.9799 3.25258 22.8451C3.4195 22.4264 3.18056 21.3879 3.3946 20.9907C3.91422 20.0262 5.28192 18.6269 5.69519 18.0608C5.97182 17.7108 5.35797 16.6682 6.51028 16.0281C7.59663 15.5489 8.04154 16.2105 8.32154 16.325C8.32356 15.9413 8.24548 15.1424 9.30087 14.6954C10.3186 14.443 11.0818 15.5112 11.1411 15.736C11.6257 15.4069 12.7793 13.4886 14.4082 12.9374C14.5482 12.8902 14.8518 12.8909 14.9924 12.8458C15.6413 12.4245 17.9271 11.4249 18.6331 11.0285C19.6629 10.4503 22.4407 8.62964 23.6267 8.48224C25.8674 8.20426 30.1367 10.6186 31.112 10.6704C32.0873 10.7222 38.3261 9.73013 40.8064 9.84792C48.5912 10.0088 54.1879 12.586 56.1405 15.6182C56.4723 15.7582 57.2181 15.9534 57.4409 16.2354C57.8178 16.7133 58.4747 17.4443 58.0042 18.882C59.098 19.8997 60.3445 23.1049 60.4165 24.6718C60.4401 26.6931 60.64 28.7742 60.8338 29.8162C61.1313 31.4134 63.1876 32.5623 62.9749 33.4084C61.5089 36.4103 61.7573 37.7625 61.0896 37.7544V37.7518Z" fill="#1B499B"/>
<path d="M10.6609 12.4223C9.49782 11.5938 7.14474 9.90773 7.10906 9.88148C6.65002 9.54628 6.65204 9.54897 6.19637 9.87946C5.06559 10.7013 2.72059 12.4217 2.63039 12.3934C2.63039 12.0811 3.58684 9.13099 3.97655 7.95445C4.05328 7.72358 3.96982 7.64281 3.82107 7.53579C2.60347 6.65743 0.10702 4.84079 0 4.74319C0.597021 4.74319 3.73559 4.67252 4.78829 4.69002C4.93031 4.69271 5.038 4.68329 5.0905 4.51703C5.56771 3.0127 6.05165 1.51039 6.5356 0C6.683 0.0774041 7.6758 3.0753 8.10657 4.44569C8.1833 4.69069 8.30512 4.69002 8.48888 4.69002C10.0349 4.688 11.5803 4.68867 13.1432 4.68867C13.0941 4.90204 9.59474 7.38974 9.39282 7.53512C9.21715 7.66166 9.20436 7.74108 9.26763 7.93291C9.70446 9.26695 10.7296 12.207 10.6602 12.4217L10.6609 12.4223Z" fill="#F5821F"/>
</g>
<defs>
<clipPath id="clip0_1090_13998">
<rect width="62.9901" height="38.2841" fill="white"/>
</clipPath>
</defs>
</svg>
