<svg width="35" height="35" viewBox="0 0 35 35" fill="none" xmlns="http://www.w3.org/2000/svg">
<path d="M28.85 3.53931H6.47185C4.61831 3.53931 3.11914 5.00931 3.11914 6.82493V28.7349C3.11914 30.5491 4.61831 32.0206 6.47185 32.0206H28.85C30.7021 32.0206 32.2041 30.5491 32.2041 28.7349V6.82493C32.2041 5.00931 30.7021 3.53931 28.85 3.53931ZM10.1643 12.3053C8.85331 12.3053 7.7931 11.2437 7.7931 9.9341C7.7931 8.62451 8.85477 7.56139 10.1643 7.56139C11.471 7.56139 12.5341 8.62597 12.5341 9.9341C12.5341 11.2422 11.471 12.3053 10.1643 12.3053ZM12.2089 14.102V27.2606H8.11393V14.102H12.2089ZM27.5214 27.262H23.4366V20.8658C23.4366 19.3345 23.4075 17.376 21.3089 17.376C19.1812 17.376 18.8589 19.0341 18.8589 20.7535V27.2606H14.7712V14.102H18.6941V15.9001H18.7496C19.2935 14.8662 20.6294 13.7739 22.6185 13.7739C26.7558 13.7739 27.5214 16.4981 27.5214 20.0418V27.262Z" fill="#DBDBDB"/>
</svg>
