<svg width="35" height="35" viewBox="0 0 35 35" fill="none" xmlns="http://www.w3.org/2000/svg">
<path d="M8.69178 14.0188V14.8153H8.67773V22.5664L13.4537 18.0714L8.69178 14.0188Z" fill="#DBDBDB"/>
<path d="M24.7929 12.8628H10.2949L17.5432 19.0379L24.7929 12.8628Z" fill="#DBDBDB"/>
<path d="M26.3962 14.0171L21.6328 18.0725L26.4102 22.5675V14.8164H26.3976L26.3962 14.0171Z" fill="#DBDBDB"/>
<path d="M28.7356 4H6.35303C4.49882 4 3 5.47072 3 7.2856V29.2004C3 31.0138 4.49882 32.486 6.35303 32.486H28.7356C30.5884 32.486 32.09 31.0138 32.09 29.2004V7.2856C32.09 5.47072 30.5884 4 28.7356 4ZM28.3282 12.9971V25.5524H6.7618V12.962C6.76039 12.9325 6.75196 12.9044 6.75196 12.8735C6.75196 12.8426 6.76039 12.8103 6.7618 12.7808C6.80956 11.7933 7.58776 11.0053 8.56965 10.942C8.61179 10.9392 8.65253 10.9294 8.69607 10.9294V10.942L26.3995 10.9294C26.4403 10.9294 26.4824 10.9406 26.526 10.942C27.498 11.0067 28.2678 11.775 28.331 12.7471C28.3338 12.7892 28.3437 12.83 28.3437 12.8735C28.3437 12.9171 28.3324 12.9564 28.331 12.9971H28.3282Z" fill="#DBDBDB"/>
<path d="M17.5412 21.5546L14.455 18.8562L9.65234 23.6364H25.4244L20.647 18.8379L17.5412 21.5546Z" fill="#DBDBDB"/>
</svg>
